<?xml version="1.0" encoding="UTF-8" standalone="no"?>
<!-- Created with Inkscape (http://www.inkscape.org/) -->

<svg
   xmlns:dc="http://purl.org/dc/elements/1.1/"
   xmlns:cc="http://creativecommons.org/ns#"
   xmlns:rdf="http://www.w3.org/1999/02/22-rdf-syntax-ns#"
   xmlns:svg="http://www.w3.org/2000/svg"
   xmlns="http://www.w3.org/2000/svg"
   xmlns:sodipodi="http://sodipodi.sourceforge.net/DTD/sodipodi-0.dtd"
   xmlns:inkscape="http://www.inkscape.org/namespaces/inkscape"
   width="64"
   height="64"
   viewBox="0 0 16.933333 16.933334"
   version="1.1"
   id="svg476"
   inkscape:version="0.92.4 (5da689c313, 2019-01-14)"
   sodipodi:docname="logo-bootstrap.svg">
  <defs
     id="defs470">
    <clipPath
       clipPathUnits="userSpaceOnUse"
       id="clipPath140">
      <path
         d="m 203.784,398.145 h 39.227 v -83.521 h -39.227 z"
         id="path138"
         inkscape:connector-curvature="0" />
    </clipPath>
    <clipPath
       clipPathUnits="userSpaceOnUse"
       id="clipPath120">
      <path
         d="m 202.826,338.742 h 38.711 v -31.465 h -38.711 z"
         id="path118"
         inkscape:connector-curvature="0" />
    </clipPath>
    <clipPath
       clipPathUnits="userSpaceOnUse"
       id="clipPath100">
      <path
         d="m 166.852,325.1 h 71.981 v -81.507 h -71.981 z"
         id="path98"
         inkscape:connector-curvature="0" />
    </clipPath>
    <clipPath
       clipPathUnits="userSpaceOnUse"
       id="clipPath84">
      <path
         d="m 155.646,336.313 h 63.303 v -84.797 h -63.303 z"
         id="path82"
         inkscape:connector-curvature="0" />
    </clipPath>
  </defs>
  <sodipodi:namedview
     id="base"
     pagecolor="#ffffff"
     bordercolor="#666666"
     borderopacity="1.0"
     inkscape:pageopacity="0.0"
     inkscape:pageshadow="2"
     inkscape:zoom="5.6568543"
     inkscape:cx="6.5438492"
     inkscape:cy="51.755164"
     inkscape:document-units="px"
     inkscape:current-layer="layer1"
     showgrid="false"
     units="px"
     inkscape:window-width="1920"
     inkscape:window-height="1046"
     inkscape:window-x="-11"
     inkscape:window-y="-11"
     inkscape:window-maximized="1" />
  <metadata
     id="metadata473">
    <rdf:RDF>
      <cc:Work
         rdf:about="">
        <dc:format>image/svg+xml</dc:format>
        <dc:type
           rdf:resource="http://purl.org/dc/dcmitype/StillImage" />
        <dc:title></dc:title>
      </cc:Work>
    </rdf:RDF>
  </metadata>
  <g
     inkscape:label="Capa 1"
     inkscape:groupmode="layer"
     id="layer1"
     transform="translate(0,-280.06665)">
    <path
       inkscape:connector-curvature="0"
       id="path76"
       style="fill:#ea8a40;fill-opacity:1;fill-rule:nonzero;stroke:none;stroke-width:0.10927024"
       d="m 7.2984333,286.74549 -6.2876279,7.97695 0.3552375,2.22463 2.3841674,-0.16784 0.1723191,-0.33032 1.1157584,-0.50898 0.418942,-1.44379 1.2480847,-0.70917 0.1413957,-1.3367 1.2758393,-0.46789 0.2105637,-1.22514 1.7676648,-2.03691 z" />
    <path
       inkscape:connector-curvature="0"
       id="path112"
       style="fill:#fbc826;fill-opacity:1;fill-rule:nonzero;stroke:none;stroke-width:0.10927024"
       d="m 9.7760047,289.89982 -3.6099608,-2.56589 0.6199993,-0.87219 3.6099608,2.56589 z" />
    <g
       id="g116"
       transform="matrix(0.10775131,0,0,-0.10775131,-15.61303,323.1616)" />
    <g
       clip-path="url(#clipPath120)"
       id="g126"
       style="opacity:1;fill:#ea8a40;fill-opacity:1"
       transform="matrix(0.10927024,0,0,-0.10927024,-15.996779,323.47608)">
      <g
         transform="translate(235.8628,307.2773)"
         id="g124"
         style="fill:#ea8a40;fill-opacity:1">
        <path
           d="m 0,0 -33.037,23.482 5.674,7.982 L 5.674,7.982 Z"
           style="fill:#ea8a40;fill-opacity:1;fill-rule:nonzero;stroke:none"
           id="path122"
           inkscape:connector-curvature="0" />
      </g>
    </g>
    <path
       style="opacity:1;fill:#753907;fill-opacity:1;fill-rule:nonzero;stroke:none;stroke-width:0.04904444;stroke-linecap:round;stroke-linejoin:round;stroke-miterlimit:4;stroke-dasharray:none;stroke-opacity:1"
       d="m 2.5398796,295.45413 c -0.045789,-0.0128 -0.1336834,-0.0687 -0.1953183,-0.12408 -0.2747612,-0.24703 -0.3212688,-0.63493 -0.091998,-0.7673 l 0.073072,-0.0422 0.1654832,0.0603 c 0.091017,0.0332 0.2258484,0.0994 0.2996266,0.14705 0.1229225,0.0794 0.1414634,0.10241 0.2217214,0.27451 0.096049,0.20597 0.1083774,0.29617 0.04795,0.35085 -0.1035521,0.0937 -0.3650489,0.14435 -0.5205361,0.1008 z"
       id="path1399"
       inkscape:connector-curvature="0" />
    <path
       inkscape:connector-curvature="0"
       id="path132"
       style="fill:#ea8a40;fill-opacity:1;fill-rule:nonzero;stroke:none;stroke-width:0.10927024"
       d="m 12.013103,283.46439 c -0.540123,-0.30137 -0.733859,-0.98343 -0.4326,-1.52356 0.301367,-0.54034 0.852995,-0.54412 1.393118,-0.24286 0.540233,0.30126 0.864296,0.79359 0.563038,1.33382 -0.301259,0.54024 -0.983324,0.73375 -1.523556,0.4326 m 1.150507,-3.01793 c -1.905075,-0.56541 -3.3989738,-0.31061 -4.3615494,0.16568 -0.8234844,0.40747 -1.4378395,0.81582 -1.9435621,1.6246 -1.2467735,2.23567 -0.445167,5.05834 1.7902834,6.30511 1.7440171,0.97264 3.7327761,0.41623 5.2653681,-0.68432 0.581399,-0.4175 0.753861,-0.76857 1.027995,-1.26012 0.91593,-1.67559 0.464699,-2.83891 0.07916,-3.8301 -0.36818,-0.94655 -0.791259,-1.76593 -1.857697,-2.32085"
       sodipodi:nodetypes="ccccccsccscsc" />
    <path
       style="opacity:1;fill:#753907;fill-opacity:1;fill-rule:nonzero;stroke:none;stroke-width:0.0435009;stroke-linecap:round;stroke-linejoin:round;stroke-miterlimit:4;stroke-dasharray:none;stroke-opacity:1"
       d="m 9.8410433,282.69349 c -0.3587562,-0.11245 -0.6237244,-0.66045 -0.4728589,-0.97797 0.086812,-0.1827 0.2181374,-0.24327 0.3784841,-0.17452 0.1725252,0.0739 0.4068255,0.22093 0.5171005,0.32438 0.105171,0.0987 0.113573,0.11405 0.18975,0.34763 0.07075,0.21694 0.07728,0.2525 0.05811,0.31649 -0.01197,0.0399 -0.04499,0.0874 -0.07404,0.10645 -0.128361,0.0841 -0.421566,0.11238 -0.5965497,0.0575 z"
       id="path1381"
       inkscape:connector-curvature="0" />
    <path
       style="opacity:1;fill:#753907;fill-opacity:1;fill-rule:nonzero;stroke:none;stroke-width:0.0435009;stroke-linecap:round;stroke-linejoin:round;stroke-miterlimit:4;stroke-dasharray:none;stroke-opacity:1"
       d="m 9.5508132,288.0669 c -0.1924942,-0.0278 -0.4763706,-0.16528 -0.6205715,-0.30067 -0.095835,-0.0899 -0.097554,-0.0937 -0.097373,-0.20864 3.116e-4,-0.19304 0.136152,-0.38416 0.3452821,-0.48576 0.075432,-0.0366 0.09454,-0.0387 0.1648001,-0.0177 0.045334,0.0136 0.1434412,0.0782 0.228384,0.15036 0.082365,0.07 0.1813925,0.13558 0.2215923,0.14674 0.039976,0.0111 0.1675501,0.0203 0.2835008,0.0203 0.206003,1.2e-4 0.212351,10e-4 0.277877,0.059 0.12361,0.10852 0.109075,0.22167 -0.04654,0.36226 -0.224935,0.20322 -0.5163832,0.30873 -0.7569533,0.27406 z"
       id="path1383"
       inkscape:connector-curvature="0" />
    <path
       style="opacity:1;fill:#753907;fill-opacity:1;fill-rule:nonzero;stroke:none;stroke-width:0.0435009;stroke-linecap:round;stroke-linejoin:round;stroke-miterlimit:4;stroke-dasharray:none;stroke-opacity:1"
       d="m 12.806182,285.49359 c -0.04239,-0.0209 -0.08185,-0.0726 -0.136471,-0.17877 -0.0801,-0.15567 -0.107704,-0.18084 -0.323747,-0.29517 -0.134514,-0.0712 -0.188876,-0.1407 -0.169769,-0.21707 0.01557,-0.0623 0.155236,-0.20159 0.252513,-0.25198 0.0348,-0.0181 0.09869,-0.0541 0.141979,-0.0803 0.132363,-0.0799 0.261045,-0.055 0.477043,0.0924 0.138944,0.0948 0.338164,0.29172 0.382156,0.37776 0.03756,0.0734 0.03766,0.0783 0.0037,0.17288 -0.07179,0.19962 -0.328649,0.41127 -0.497827,0.41019 -0.03845,-2.6e-4 -0.09675,-0.0137 -0.129546,-0.0298 z"
       id="path1385"
       inkscape:connector-curvature="0" />
    <path
       style="opacity:1;fill:#753907;fill-opacity:1;fill-rule:nonzero;stroke:none;stroke-width:0.0435009;stroke-linecap:round;stroke-linejoin:round;stroke-miterlimit:4;stroke-dasharray:none;stroke-opacity:1"
       d="m 12.306096,287.74388 c -0.115809,-0.0662 -0.11639,-0.1482 -0.0019,-0.26272 0.0936,-0.0936 0.196985,-0.13587 0.306827,-0.12543 0.06192,0.006 0.06949,0.0131 0.07509,0.0714 0.0076,0.0795 -0.06926,0.21921 -0.153685,0.27934 -0.07157,0.0509 -0.173261,0.0677 -0.226371,0.0374 z"
       id="path1387"
       inkscape:connector-curvature="0" />
    <path
       style="opacity:1;fill:#753907;fill-opacity:1;fill-rule:nonzero;stroke:none;stroke-width:0.0435009;stroke-linecap:round;stroke-linejoin:round;stroke-miterlimit:4;stroke-dasharray:none;stroke-opacity:1"
       d="m 7.6367095,282.75501 c -0.080528,-0.0469 -0.1199391,-0.26784 -0.06806,-0.3817 0.036638,-0.0804 0.147313,-0.12574 0.3191815,-0.13073 0.090028,-0.002 0.1579708,0.005 0.1713324,0.0178 0.047943,0.048 -0.040036,0.20702 -0.2232849,0.40376 -0.1074842,0.11538 -0.1351995,0.12803 -0.1991691,0.0909 z"
       id="path1389"
       inkscape:connector-curvature="0" />
    <path
       style="opacity:1;fill:#753907;fill-opacity:1;fill-rule:nonzero;stroke:none;stroke-width:0.0435009;stroke-linecap:round;stroke-linejoin:round;stroke-miterlimit:4;stroke-dasharray:none;stroke-opacity:1"
       d="m 10.162662,285.72132 c -0.17128,-0.0494 -0.1970362,-0.39575 -0.04032,-0.54214 0.137797,-0.12873 0.38876,-0.11108 0.542966,0.0381 0.188819,0.18274 0.0713,0.45406 -0.218543,0.50453 -0.144423,0.0252 -0.195286,0.0251 -0.284106,-5.6e-4 z"
       id="path1393"
       inkscape:connector-curvature="0" />
    <path
       style="opacity:1;fill:#753907;fill-opacity:1;fill-rule:nonzero;stroke:none;stroke-width:0.0435009;stroke-linecap:round;stroke-linejoin:round;stroke-miterlimit:4;stroke-dasharray:none;stroke-opacity:1"
       d="m 14.520323,284.7845 c -0.06926,-0.0276 -0.116976,-0.0751 -0.159895,-0.15924 -0.07549,-0.14791 -0.03253,-0.27213 0.121217,-0.35056 0.09476,-0.0484 0.130309,-0.0486 0.208167,-10e-4 0.0706,0.0431 0.156703,0.20444 0.176191,0.33027 0.01151,0.0743 0.0068,0.0888 -0.04707,0.14265 -0.05074,0.0508 -0.07438,0.0597 -0.154855,0.0586 -0.05224,-5.9e-4 -0.116922,-0.0101 -0.143753,-0.0207 z"
       id="path1395"
       inkscape:connector-curvature="0" />
    <path
       style="opacity:1;fill:#753907;fill-opacity:1;fill-rule:nonzero;stroke:none;stroke-width:0.04715417;stroke-linecap:round;stroke-linejoin:round;stroke-miterlimit:4;stroke-dasharray:none;stroke-opacity:1"
       d="m 7.8398711,284.98229 c -0.1979057,-0.0691 -0.3860269,-0.23925 -0.4252122,-0.38478 -0.033667,-0.12502 0.00515,-0.22746 0.1356638,-0.35797 0.2966153,-0.29662 0.7498077,-0.37298 0.9905537,-0.16691 0.1063457,0.0911 0.1389741,0.18654 0.1259417,0.36869 -0.017632,0.24643 -0.1423996,0.45221 -0.3257611,0.53728 -0.106969,0.0496 -0.3640122,0.0515 -0.5011859,0.004 z"
       id="path1397"
       inkscape:connector-curvature="0" />
    <path
       style="opacity:1;fill:#753907;fill-opacity:1;fill-rule:nonzero;stroke:none;stroke-width:0.0435009;stroke-linecap:round;stroke-linejoin:round;stroke-miterlimit:4;stroke-dasharray:none;stroke-opacity:1"
       d="m 7.511277,289.13 c 0.1753997,-0.0841 0.4877635,-0.1278 0.6829372,-0.0954 0.129667,0.0214 0.1331868,0.0235 0.1969911,0.11919 0.1071442,0.16058 0.1006044,0.39497 -0.016641,0.59575 -0.042319,0.0723 -0.057006,0.0848 -0.1271184,0.10636 -0.045295,0.0137 -0.1627025,0.0148 -0.2734273,0.002 -0.1073767,-0.0124 -0.1257739,-0.1357 -0.2022861,-0.15708 -0.031989,5.2e-4 -0.075071,-0.0392 -0.1714233,0.0252 -0.1712228,0.11458 -0.1770026,0.11735 -0.2637359,0.10556 -0.1630969,-0.0214 -0.2139675,-0.12352 -0.1628859,-0.32691 0.073842,-0.29401 0.1183851,-0.26981 0.3375742,-0.37484 z"
       id="path1383-1"
       inkscape:connector-curvature="0"
       sodipodi:nodetypes="cccccccccccc" />
    <path
       style="opacity:1;fill:#753907;fill-opacity:1;fill-rule:nonzero;stroke:none;stroke-width:0.06920125;stroke-linecap:round;stroke-linejoin:round;stroke-miterlimit:4;stroke-dasharray:none;stroke-opacity:1"
       d="m 4.4279953,294.10601 c -0.1838983,-0.11305 -0.2389401,-0.54508 -0.1027041,-0.80614 0.1051439,-0.20147 0.2125612,-0.27282 0.4107617,-0.27282 0.1984644,0 0.386256,0.11932 0.5039884,0.32021 0.098924,0.1688 0.086633,0.334 -0.036896,0.49596 -0.1400726,0.18364 -0.3090862,0.27538 -0.5281895,0.28669 -0.1055812,0.005 -0.2167148,-0.005 -0.2469605,-0.0239 z"
       id="path1431"
       inkscape:connector-curvature="0" />
    <path
       style="opacity:1;fill:#753907;fill-opacity:1;fill-rule:nonzero;stroke:none;stroke-width:0.0435009;stroke-linecap:round;stroke-linejoin:round;stroke-miterlimit:4;stroke-dasharray:none;stroke-opacity:1"
       d="m 5.3627788,290.00202 c -0.1158088,-0.0662 -0.1163899,-0.1482 -0.00193,-0.26272 0.093601,-0.0936 0.1969842,-0.13587 0.3068261,-0.12543 0.061921,0.006 0.069486,0.0131 0.075094,0.0714 0.00761,0.0795 -0.069263,0.21921 -0.1536854,0.27934 -0.071575,0.0509 -0.1732614,0.0677 -0.2263707,0.0374 z"
       id="path1387-0"
       inkscape:connector-curvature="0" />
    <path
       style="opacity:1;fill:#753907;fill-opacity:1;fill-rule:nonzero;stroke:none;stroke-width:0.0435009;stroke-linecap:round;stroke-linejoin:round;stroke-miterlimit:4;stroke-dasharray:none;stroke-opacity:1"
       d="m 6.014636,291.53471 c -0.1712799,-0.0494 -0.1970361,-0.39575 -0.04032,-0.54214 0.1377974,-0.12873 0.3887599,-0.11109 0.5429664,0.0381 0.1888188,0.18274 0.071301,0.45406 -0.2185428,0.50453 -0.1444235,0.0251 -0.1952866,0.0251 -0.2841062,-5.6e-4 z"
       id="path1393-0"
       inkscape:connector-curvature="0" />
  </g>
</svg>
